<svg width="12" height="10" viewBox="0 0 12 10" fill="none" xmlns="http://www.w3.org/2000/svg">
<path d="M4.869 9.63078C4.811 9.57428 4.563 9.36094 4.359 9.1622C3.076 7.99708 0.975999 4.9576 0.335 3.3668C0.232 3.1252 0.0140006 2.5144 6.82947e-07 2.188C7.10284e-07 1.8753 0.0720012 1.5772 0.218001 1.2927C0.422002 0.938099 0.743001 0.6537 1.122 0.4978C1.385 0.3975 2.172 0.241599 2.186 0.241599C3.047 0.0856993 4.446 -6.60392e-07 5.992 -5.25236e-07C7.465 -3.96462e-07 8.807 0.0857007 9.681 0.213301C9.695 0.228 10.673 0.3838 11.008 0.5543C11.62 0.867001 12 1.4778 12 2.1315L12 2.188C11.985 2.6137 11.605 3.509 11.591 3.509C10.949 5.0141 8.952 7.98344 7.625 9.17681C7.625 9.17681 7.284 9.51291 7.071 9.65904C6.765 9.88699 6.386 10 6.007 10C5.584 10 5.19 9.87238 4.869 9.63078Z" fill="white"/>
</svg>
