<svg width="20" height="20" viewBox="0 0 20 20" fill="none" xmlns="http://www.w3.org/2000/svg">
<path fill-rule="evenodd" clip-rule="evenodd" d="M7.00291 2.98987C7.30269 2.8651 7.64685 3.00697 7.77162 3.30675L8.33751 4.66634C8.46228 4.96611 8.32041 5.31028 8.02063 5.43505C7.72086 5.55982 7.37669 5.41795 7.25192 5.11817L6.68604 3.75858C6.56127 3.45881 6.70314 3.11464 7.00291 2.98987Z" fill="white"/>
<path fill-rule="evenodd" clip-rule="evenodd" d="M2.23243 7.76036C2.3572 7.46058 2.70136 7.31871 3.00114 7.44349L4.36073 8.00937C4.6605 8.13414 4.80237 8.4783 4.6776 8.77808C4.55283 9.07786 4.20867 9.21973 3.90889 9.09495L2.5493 8.52907C2.24952 8.4043 2.10765 8.06013 2.23243 7.76036Z" fill="white"/>
<path fill-rule="evenodd" clip-rule="evenodd" d="M18.5308 7.76036C18.6555 8.06013 18.5137 8.4043 18.2139 8.52907L16.8543 9.09495C16.5545 9.21973 16.2103 9.07786 16.0856 8.77808C15.9608 8.4783 16.1027 8.13414 16.4024 8.00937L17.762 7.44349C18.0618 7.31871 18.406 7.46058 18.5308 7.76036Z" fill="white"/>
<path fill-rule="evenodd" clip-rule="evenodd" d="M13.7603 2.98987C14.06 3.11464 14.2019 3.45881 14.0771 3.75858L13.5112 5.11817C13.3865 5.41795 13.0423 5.55982 12.7425 5.43505C12.4428 5.31028 12.3009 4.96611 12.4257 4.66634L12.9915 3.30675C13.1163 3.00697 13.4605 2.8651 13.7603 2.98987Z" fill="white"/>
<path fill-rule="evenodd" clip-rule="evenodd" d="M1.56262 12.315C1.56262 11.9903 1.82585 11.7271 2.15055 11.7271H18.6126C18.9373 11.7271 19.2006 11.9903 19.2006 12.315C19.2006 12.6397 18.9373 12.9029 18.6126 12.9029H2.15055C1.82585 12.9029 1.56262 12.6397 1.56262 12.315Z" fill="white"/>
<path fill-rule="evenodd" clip-rule="evenodd" d="M3.91431 15.2546C3.91431 14.9299 4.17753 14.6666 4.50224 14.6666H16.2609C16.5856 14.6666 16.8488 14.9299 16.8488 15.2546C16.8488 15.5793 16.5856 15.8425 16.2609 15.8425H4.50224C4.17753 15.8425 3.91431 15.5793 3.91431 15.2546Z" fill="white"/>
<path fill-rule="evenodd" clip-rule="evenodd" d="M10.3816 7.31026C9.79222 7.31026 9.21085 7.44657 8.68292 7.70853C8.15498 7.9705 7.6948 8.35101 7.33832 8.82034C6.98185 9.28966 6.73876 9.83507 6.62805 10.4139C6.51734 10.9928 6.54201 11.5894 6.70014 12.1572C6.78726 12.47 6.60431 12.7942 6.29151 12.8813C5.97871 12.9684 5.65451 12.7855 5.56739 12.4727C5.36061 11.7302 5.32835 10.95 5.47312 10.1931C5.61789 9.43608 5.93579 8.72285 6.40194 8.10912C6.8681 7.49538 7.46988 6.99779 8.16025 6.65522C8.85063 6.31265 9.61088 6.1344 10.3816 6.1344C11.1523 6.1344 11.9125 6.31265 12.6029 6.65522C13.2933 6.99779 13.895 7.49538 14.3612 8.10912C14.8274 8.72285 15.1452 9.43608 15.29 10.1931C15.4348 10.95 15.4025 11.7302 15.1957 12.4727C15.1086 12.7855 14.7844 12.9684 14.4716 12.8813C14.1588 12.7942 13.9759 12.47 14.063 12.1572C14.2211 11.5894 14.2458 10.9928 14.1351 10.4139C14.0244 9.83507 13.7813 9.28966 13.4248 8.82034C13.0683 8.35101 12.6082 7.9705 12.0802 7.70853C11.5523 7.44657 10.9709 7.31026 10.3816 7.31026Z" fill="white"/>
</svg>
